<?xml version="1.0" encoding="UTF-8" standalone="no"?>
<svg
   version="1.1"
   width="1742.9973"
   height="1451"
   style="clip-rule:evenodd;fill-rule:evenodd;image-rendering:optimizeQuality;shape-rendering:geometricPrecision;text-rendering:geometricPrecision"
   id="svg26"
   sodipodi:docname="logo.svg"
   xmlns:inkscape="http://www.inkscape.org/namespaces/inkscape"
   xmlns:sodipodi="http://sodipodi.sourceforge.net/DTD/sodipodi-0.dtd"
   xmlns="http://www.w3.org/2000/svg"
   xmlns:svg="http://www.w3.org/2000/svg">
  <defs
     id="defs30" />
  <sodipodi:namedview
     id="namedview28"
     pagecolor="#505050"
     bordercolor="#ffffff"
     borderopacity="1"
     inkscape:showpageshadow="0"
     inkscape:pageopacity="0"
     inkscape:pagecheckerboard="1"
     inkscape:deskcolor="#505050"
     showgrid="false" />
  <g
     id="g4"
     transform="translate(-690.50024,-836.5)">
    <path
       style="opacity:1"
       fill="#d9d9d9"
       d="m 1560.5,836.5 c 0.67,14.172 1.33,28.506 2,43 182.41,104.954 364.58,210.29 546.5,316 0.83,13.68 0.67,27.35 -0.5,41 -182.21,-105.27 -364.54,-210.27 -547,-315 -139.96,79.98 -279.62,160.48 -419,241.5 -1.79,0.52 -3.46,0.19 -5,-1 -22.54,-13.37 -45.2,-26.53 -68,-39.5 -1.33,-0.67 -1.33,-1.33 0,-2 163.89,-94.44 327.56,-189.108 491,-284 z"
       id="path2" />
  </g>
  <g
     id="g8"
     transform="translate(-690.50024,-836.5)">
    <path
       style="opacity:1"
       fill="#fefefe"
       d="m 2190.5,1865.5 c 0.06,0.54 0.39,0.88 1,1 1,-253.67 1.33,-507.33 1,-761 79.61,-46.81 159.61,-93.14 240,-139 1.33,439.33 1.33,878.67 0,1318 -488.46,-281.97 -976.8,-564.13 -1465,-846.5 -11.937,-6.8 -23.937,-13.3 -36,-19.5 -0.333,53.34 0,106.67 1,160 18.433,-11.1 37.099,-21.77 56,-32 25.03,13.53 49.7,27.7 74,42.5 -43.58,25.04 -87.082,50.21 -130.5,75.5 -0.5,25.33 -0.667,50.66 -0.5,76 66.227,-37.12 132.23,-74.78 198,-113 24.83,13.91 49.5,28.08 74,42.5 -90.42,52.63 -180.92,105.13 -271.5,157.5 -0.833,25.34 -0.666,50.67 0.5,76 112.75,-65.13 225.59,-130.13 338.5,-195 24.25,14.21 48.42,28.54 72.5,43 -136.84,79.59 -273.84,158.92 -411,238 -1.166,25.66 -1.333,51.33 -0.5,77 159.42,-91.96 318.92,-183.79 478.5,-275.5 1,-0.67 2,-0.67 3,0 23.67,13.83 47.33,27.67 71,41.5 -185.63,107.82 -371.3,215.65 -557,323.5 -78.539,44.03 -157.206,87.87 -236,131.5 -1.333,-429.33 -1.333,-858.67 0,-1288 499.53,288.93 999.2,577.6 1499,866 z"
       id="path6" />
  </g>
  <g
     id="g12"
     transform="translate(-690.50024,-836.5)">
    <path
       style="opacity:1"
       fill="#d9d9d9"
       d="m 1560.5,998.5 c 0.67,14.17 1.33,28.51 2,43 182.41,104.95 364.58,210.29 546.5,316 0.83,13.68 0.67,27.35 -0.5,41 -182.21,-105.27 -364.54,-210.27 -547,-315 -93.11,53.26 -186.11,106.76 -279,160.5 -1,0.67 -2,0.67 -3,0 -23.17,-13.75 -46.5,-27.25 -70,-40.5 -1.33,-0.67 -1.33,-1.33 0,-2 117.23,-67.44 234.23,-135.11 351,-203 z"
       id="path10" />
  </g>
  <g
     id="g16"
     transform="translate(-690.50024,-836.5)">
    <path
       style="opacity:1"
       fill="#f0f0f0"
       d="m 2192.5,1105.5 c 0.33,253.67 0,507.33 -1,761 -0.61,-0.12 -0.94,-0.46 -1,-1 0.67,-253.33 1.33,-506.67 2,-760 z"
       id="path14" />
  </g>
  <g
     id="g20"
     transform="translate(-690.50024,-836.5)">
    <path
       style="opacity:1"
       fill="#d9d9d9"
       d="m 1560.5,1160.5 c 0.67,14.17 1.33,28.51 2,43 182.41,104.95 364.58,210.29 546.5,316 0.83,13.68 0.67,27.35 -0.5,41 -181.67,-104.83 -363.33,-209.67 -545,-314.5 -1.33,-0.67 -2.67,-0.67 -4,0 -45.84,26.75 -91.84,53.25 -138,79.5 -23.67,-13.5 -47.33,-27 -71,-40.5 -0.95,-0.72 -1.12,-1.55 -0.5,-2.5 70.31,-40.57 140.48,-81.23 210.5,-122 z"
       id="path18" />
  </g>
  <g
     id="g24"
     transform="translate(-690.50024,-836.5)">
    <path
       style="opacity:1"
       fill="#d9d9d9"
       d="m 1560.5,1322.5 c 0.67,14.17 1.33,28.51 2,43 182.41,104.95 364.58,210.29 546.5,316 0.83,13.68 0.67,27.35 -0.5,41 -206.5,-119.08 -412.83,-238.41 -619,-358 23.56,-14.28 47.23,-28.28 71,-42 z"
       id="path22" />
  </g>
</svg>
